<?xml version="1.0" encoding="UTF-8" standalone="no"?>
<svg
   xmlns:dc="http://purl.org/dc/elements/1.1/"
   xmlns:cc="http://creativecommons.org/ns#"
   xmlns:rdf="http://www.w3.org/1999/02/22-rdf-syntax-ns#"
   xmlns:svg="http://www.w3.org/2000/svg"
   xmlns="http://www.w3.org/2000/svg"
   xmlns:sodipodi="http://sodipodi.sourceforge.net/DTD/sodipodi-0.dtd"
   xmlns:inkscape="http://www.inkscape.org/namespaces/inkscape"
   width="1280"
   height="640"
   viewBox="0 0 338.66666 169.33334"
   version="1.1"
   id="svg947"
   inkscape:version="1.0.1 (3bc2e813f5, 2020-09-07)"
   sodipodi:docname="og.svg"
   inkscape:export-filename="/tmp/mqtt-osc.png"
   inkscape:export-xdpi="96"
   inkscape:export-ydpi="96">
  <defs
     id="defs941" />
  <sodipodi:namedview
     id="base"
     pagecolor="#ffffff"
     bordercolor="#666666"
     borderopacity="1.0"
     inkscape:pageopacity="0.0"
     inkscape:pageshadow="2"
     inkscape:zoom="0.4508967"
     inkscape:cx="817.64231"
     inkscape:cy="565.165"
     inkscape:document-units="px"
     inkscape:current-layer="layer1"
     inkscape:document-rotation="0"
     showgrid="false"
     units="px"
     inkscape:window-width="1440"
     inkscape:window-height="810"
     inkscape:window-x="23"
     inkscape:window-y="15"
     inkscape:window-maximized="0"
     inkscape:snap-page="false" />
  <metadata
     id="metadata944">
    <rdf:RDF>
      <cc:Work
         rdf:about="">
        <dc:format>image/svg+xml</dc:format>
        <dc:type
           rdf:resource="http://purl.org/dc/dcmitype/StillImage" />
        <dc:title></dc:title>
      </cc:Work>
    </rdf:RDF>
  </metadata>
  <g
     inkscape:label="Layer 1"
     inkscape:groupmode="layer"
     id="layer1">
    <rect
       style="font-variation-settings:normal;opacity:1;vector-effect:none;fill:#c9b6be;fill-opacity:1;stroke-width:0.0499995;stroke-linecap:butt;stroke-linejoin:miter;stroke-miterlimit:4;stroke-dasharray:none;stroke-dashoffset:0;stroke-opacity:1;paint-order:markers stroke fill;stop-color:#000000;stop-opacity:1"
       id="rect1561"
       x="6.7529295e-06"
       y="3.3764647e-06"
       width="338.66666"
       height="169.33333" />
    <g
       id="g2389"
       transform="matrix(0.41840624,0,0,0.41840624,-18.510025,83.625022)"
       style="stroke-width:2.39002">
      <g
         id="g916"
         transform="translate(297.52025,-50.981066)"
         style="fill:#714955;fill-opacity:1;stroke-width:2.39002">
        <path
           d="m 334.06577,19.019695 h -27.56074 v 6.890185 h -6.89019 v 55.121481 h 6.89019 v 6.890186 h 27.56074 v -6.890186 h 6.89018 V 25.90988 h -6.89018 z M 299.61484,12.12951 V 5.2393244 h 41.34111 V 12.12951 h 6.89019 v 6.890185 h 6.89018 v 68.901852 h -6.89018 v 6.890185 h -6.89019 v 6.890188 h -41.34111 v -6.890188 h -6.89018 v -6.890185 h -6.89019 V 19.019695 h 6.89019 V 12.12951 Z"
           style="font-style:normal;font-variant:normal;font-weight:normal;font-stretch:normal;font-size:141.111px;line-height:80%;font-family:'VCR OSD Mono';-inkscape-font-specification:'VCR OSD Mono';font-feature-settings:italic;text-align:center;text-decoration:none;text-decoration-line:none;text-decoration-color:#000000;text-anchor:middle;fill:#714955;fill-opacity:1;stroke-width:8.09549;paint-order:markers stroke fill"
           id="path887" />
        <path
           d="m 430.52836,19.019695 h 6.89019 v 13.78037 H 423.63817 V 25.90988 h -6.89018 v -6.890185 h -27.56074 v 6.890185 h -6.89019 v 13.78037 h 6.89019 v 6.890185 h 34.45092 v 6.890186 h 6.89019 v 6.890185 h 6.89019 v 27.560741 h -6.89019 v 6.890185 h -6.89019 v 6.890188 h -41.34111 v -6.890188 h -6.89018 v -6.890185 h -6.89019 V 74.141176 h 13.78037 v 6.890185 h 6.89019 v 6.890186 h 27.56074 v -6.890186 h 6.89018 v -13.78037 h -6.89018 v -6.890185 h -34.45093 v -6.890185 h -6.89018 v -6.890186 h -6.89019 v -27.56074 h 6.89019 V 12.12951 h 6.89018 V 5.2393244 h 41.34111 V 12.12951 h 6.89019 z"
           style="font-style:normal;font-variant:normal;font-weight:normal;font-stretch:normal;font-size:141.111px;line-height:80%;font-family:'VCR OSD Mono';-inkscape-font-specification:'VCR OSD Mono';font-feature-settings:italic;text-align:center;text-decoration:none;text-decoration-line:none;text-decoration-color:#000000;text-anchor:middle;fill:#714955;fill-opacity:1;stroke-width:8.09549;paint-order:markers stroke fill"
           id="path889" />
        <path
           d="m 471.86947,87.921547 h 27.56074 v -6.890186 h 6.89019 v -6.890185 h 13.78037 v 13.780371 h -6.89019 v 6.890185 h -6.89018 v 6.890188 h -41.34112 v -6.890188 h -6.89018 v -6.890185 h -6.89019 V 19.019695 h 6.89019 V 12.12951 h 6.89018 V 5.2393244 H 506.3204 V 12.12951 h 6.89018 v 6.890185 h 6.89019 v 13.78037 H 506.3204 V 25.90988 h -6.89019 v -6.890185 h -27.56074 v 6.890185 h -6.89019 v 55.121481 h 6.89019 z"
           style="font-style:normal;font-variant:normal;font-weight:normal;font-stretch:normal;font-size:141.111px;line-height:80%;font-family:'VCR OSD Mono';-inkscape-font-specification:'VCR OSD Mono';font-feature-settings:italic;text-align:center;text-decoration:none;text-decoration-line:none;text-decoration-color:#000000;text-anchor:middle;fill:#714955;fill-opacity:1;stroke-width:8.09549;paint-order:markers stroke fill"
           id="path891" />
      </g>
      <g
         aria-label="MQTT"
         id="text845"
         style="font-size:141.111px;line-height:80%;font-family:Montserrat;-inkscape-font-specification:Montserrat;font-feature-settings:italic;text-decoration:none;text-decoration-line:none;text-decoration-color:#000000;fill:#94ddbc;fill-opacity:1;stroke-width:8.09549;paint-order:markers stroke fill;stop-color:#000000"
         transform="translate(257.21683,-62.224466)">
        <path
           d="m -163.15808,112.94532 h -13.78037 V 16.482725 h 13.78037 v 13.78037 h 6.89019 v 6.890185 h 6.89018 v 6.890186 h 13.78037 V 37.15328 h 6.89019 v -6.890185 h 6.89018 v -13.78037 h 13.78037 v 96.462595 h -13.78037 V 50.933651 h -6.89018 v 6.890185 h -6.89019 v 13.78037 h -13.78037 v -13.78037 h -6.89018 v -6.890185 h -6.89019 z"
           style="font-style:normal;font-variant:normal;font-weight:normal;font-stretch:normal;font-family:'VCR OSD Mono';-inkscape-font-specification:'VCR OSD Mono';text-align:center;text-anchor:middle;fill:#94ddbc;fill-opacity:1;stroke-width:8.09549"
           id="path900" />
        <path
           d="m -80.47586,37.15328 v 55.121482 h 6.890185 v 6.890185 h 20.670556 v -6.890185 h -6.890185 v -6.890185 h -6.890185 V 71.604206 h 13.78037 v 6.890186 h 6.890185 v 6.890185 h 6.890185 V 37.15328 h -6.890185 v -6.890185 h -27.560741 v 6.890185 z m -6.890185,62.011667 H -94.25623 V 30.263095 h 6.890185 V 23.37291 h 6.890185 v -6.890185 h 41.341111 v 6.890185 h 6.890186 v 6.890185 h 6.890185 v 62.011667 h -6.890185 v 6.890185 h 6.890185 v 13.780373 h -13.780371 v -6.89019 h -13.78037 v 6.89019 H -80.47586 v -6.89019 h -6.890185 z"
           style="font-style:normal;font-variant:normal;font-weight:normal;font-stretch:normal;font-family:'VCR OSD Mono';-inkscape-font-specification:'VCR OSD Mono';text-align:center;text-anchor:middle;fill:#94ddbc;fill-opacity:1;stroke-width:8.09549"
           id="path902" />
        <path
           d="M 15.986731,30.263095 H -11.57401 v -13.78037 h 68.901852 v 13.78037 H 29.767101 v 82.682225 h -13.78037 z"
           style="font-style:normal;font-variant:normal;font-weight:normal;font-stretch:normal;font-family:'VCR OSD Mono';-inkscape-font-specification:'VCR OSD Mono';text-align:center;text-anchor:middle;fill:#94ddbc;fill-opacity:1;stroke-width:8.09549"
           id="path904" />
        <path
           d="M 98.668952,30.263095 H 71.108211 v -13.78037 h 68.901849 v 13.78037 H 112.44932 V 112.94532 H 98.668952 Z"
           style="font-style:normal;font-variant:normal;font-weight:normal;font-stretch:normal;font-family:'VCR OSD Mono';-inkscape-font-specification:'VCR OSD Mono';text-align:center;text-anchor:middle;fill:#94ddbc;fill-opacity:1;stroke-width:8.09549"
           id="path906" />
      </g>
      <g
         id="g1382"
         transform="translate(265.72382,-64.86473)"
         style="fill:#fb8b24;fill-opacity:1;stroke-width:2.39002">
        <path
           id="path898"
           style="font-size:141.111px;line-height:80%;font-family:Montserrat;-inkscape-font-specification:Montserrat;font-feature-settings:italic;text-decoration:none;text-decoration-line:none;text-decoration-color:#000000;fill:#fb8b24;fill-opacity:1;stroke:none;stroke-width:0.632359px;stroke-linecap:butt;stroke-linejoin:miter;stroke-opacity:1;paint-order:markers stroke fill"
           d="m 166.00072,19.122863 v 6.890019 6.890537 6.890017 6.890019 6.890536 6.890017 6.89002 6.890536 6.890017 6.89002 6.890535 6.890014 6.89002 6.89054 h 6.89002 6.89002 v -6.89054 h 6.89053 v -6.89002 h 6.89002 v -6.890014 h 6.89002 v -6.890535 h 6.89053 v -6.89002 h 6.89002 v -6.890017 h 6.89002 v -6.890536 -6.89002 h -6.89002 v -6.890017 h -6.89002 v -6.890536 h -6.89053 v -6.890019 h -6.89002 v -6.890017 h -6.89002 v -6.890537 h -6.89053 v -6.890019 h -6.89002 z" />
        <path
           id="path898-4"
           style="font-size:141.111px;line-height:80%;font-family:Montserrat;-inkscape-font-specification:Montserrat;font-feature-settings:italic;text-decoration:none;text-decoration-line:none;text-decoration-color:#000000;fill:#fb8b24;fill-opacity:1;stroke:none;stroke-width:0.632359px;stroke-linecap:butt;stroke-linejoin:miter;stroke-opacity:1;paint-order:markers stroke fill"
           d="m 228.0121,19.12286 v 6.89002 6.89054 6.89002 6.89002 6.89053 6.89002 6.89002 6.89054 6.89001 6.89002 6.89054 6.89001 6.89002 6.89054 h 6.89002 6.89002 v -6.89054 h 6.89053 v -6.89002 h 6.89002 v -6.89001 h 6.89002 V 88.0246 h 6.89054 v -6.89002 h 6.89001 v -6.89001 h 6.89002 v -6.89054 -6.890019 h -6.89002 v -6.89002 h -6.89001 v -6.89053 h -6.89054 v -6.89002 h -6.89002 v -6.89002 h -6.89002 v -6.89054 h -6.89053 v -6.89002 h -6.89002 z" />
      </g>
    </g>
  </g>
</svg>
